# xmcd
#
# Track frame offsets: 
#        150
#        13604
#        24420
#        37966
#        51900
#        62749
#        78682
#        88665
#        99035
#        110520
#        121357
#        131616
#        142948
#        153045
#        164017
#        174336
#        185518
#        197846
#        208673
#        217947
#        228437
#        235846
#        245616
#        254799
#        261920
#        275761
#        287975
#        299536
#        311434
#        321603
#        330603
#        342883
#
# Disc length: 4781 seconds
#
# Revision: 0
# Processed by: cddbd v1.5.2PL0 Copyright (c) Steve Scherf et al.
# Submitted via: ExactAudioCopyFreeDBPlugin 1.0
#
DISCID=e212ab20
DTITLE=Various Artist - Birth Work Death: Work, Money And Status In C
DTITLE=ountry Music (1950-1974)
DYEAR=2018
DGENRE=Country
TTITLE0=Bill Carter - By The Sweat Of My Brow
TTITLE1=Bobby Barnett - Workin' Man
TTITLE2=Tex Ritter - The Workingman's Prayer
TTITLE3=Mr. Connie Dycus - Dark As A Dungeon
TTITLE4=Dave Dudley - Workin' Hands
TTITLE5=Eddie Noack - Cotton Mill
TTITLE6=The Westport Kids - You Kaint Take It With You
TTITLE7=Arlie Duff - Money Hungry
TTITLE8=Tex Williams - Money
TTITLE9=Tennessee Ernie Ford - Sixteen Tons '65
TTITLE10=Charlie Gore - Black Diamond
TTITLE11=Howard Vokes - The Miner
TTITLE12=The Wray Family - (Dark As A Dungeon Way) Down In The Mine
TTITLE13=George Davis - Little Lump Of Coal
TTITLE14=Doc Williams - Don't Want To Work
TTITLE15=David Hiser - On Strike
TTITLE16=Buddy Durham - Sixteen Tons
TTITLE17=Sunshine Boys Quartet - Checking Up On My Payments
TTITLE18=Slim Willet and His Hired Hands - Come Sundown
TTITLE19=Dewitt Lee - Poor Man
TTITLE20=Rusty Dunn with Wayne Roberts and The Countrymen - Production L
TTITLE20=ine
TTITLE21=Billy Parker - It Takes A Lot Of Money
TTITLE22=Phil Brown with Bill Wood's Band - You're A Luxury
TTITLE23=Daily Carson - He Ain't Got Nothing But A Cadillac
TTITLE24=Perry Tonightus and The Heart Burn - Living On
TTITLE25=Tommy Dee - Welfare Cadillac
TTITLE26=Harold Montgomery and His Star Lighters - All Them Wives
TTITLE27=Jay Lee Webb - Finance Company Waltz
TTITLE28=Jack Shaw - Black Lung
TTITLE29=Rev. Joe Freeman - There Will Be No Black Lung (Up In Heaven)
TTITLE30=Stan Farlow - 1040 Blues
TTITLE31=Ray Winfree - Poor Man's Blues
EXTD=
EXTT0=
EXTT1=
EXTT2=
EXTT3=
EXTT4=
EXTT5=
EXTT6=
EXTT7=
EXTT8=
EXTT9=
EXTT10=
EXTT11=
EXTT12=
EXTT13=
EXTT14=
EXTT15=
EXTT16=
EXTT17=
EXTT18=
EXTT19=
EXTT20=
EXTT21=
EXTT22=
EXTT23=
EXTT24=
EXTT25=
EXTT26=
EXTT27=
EXTT28=
EXTT29=
EXTT30=
EXTT31=
PLAYORDER=
